<svg xmlns="http://www.w3.org/2000/svg" width="161" height="160" fill="none"><path fill="#E93A37" d="M122.73 135.58a6.178 6.178 0 0 1-3.07-.811L14.113 74.513A6.163 6.163 0 0 1 11 69.17V42.385a6.181 6.181 0 0 1 3.123-5.354L77.807.807a6.25 6.25 0 0 1 6.16.01l62.989 36.214a6.192 6.192 0 0 1 3.092 5.344v74.218a6.186 6.186 0 0 1-2.963 5.259l-21.125 12.832a6.232 6.232 0 0 1-3.219.907l-.011-.011ZM20.145 67.452l102.542 58.539 18.216-11.062V44.071L80.866 9.553l-60.72 34.539v23.36Zm60.475 92.544a6.183 6.183 0 0 1-3.134-.853l-63.438-37.259A6.172 6.172 0 0 1 11 116.572V92.956a5.11 5.11 0 0 1 2.567-4.416 5.165 5.165 0 0 1 5.123.01l85.707 49.995a5.099 5.099 0 0 1 2.524 4.427 5.073 5.073 0 0 1-2.577 4.395l-20.643 11.808a6.215 6.215 0 0 1-3.08.81v.011Zm-60.475-45.109 60.507 35.53 13.124-7.498-73.63-42.944v14.922-.01Zm79.664 24.586h-.011.01Z"/></svg>