<svg xmlns="http://www.w3.org/2000/svg" xmlns:xlink="http://www.w3.org/1999/xlink" width="500" zoomAndPan="magnify" viewBox="0 0 375 225" height="300" preserveAspectRatio="xMidYMid meet" version="1.0"><defs><g/><clipPath id="c7e0c15641"><path d="M 4 14 L 277 14 L 277 132 L 4 132 Z M 4 14 " clip-rule="nonzero"/></clipPath><clipPath id="2425e09583"><path d="M 7.128906 0 L 280.378906 15.003906 L 273.253906 144.800781 L 0 129.796875 Z M 7.128906 0 " clip-rule="nonzero"/></clipPath><clipPath id="91b115fb1b"><path d="M 280.378906 15.003906 L 7.128906 0 L 0 129.796875 L 273.253906 144.800781 Z M 280.378906 15.003906 " clip-rule="nonzero"/></clipPath><clipPath id="36bd86d9a2"><path d="M 280.378906 15.003906 L 7.128906 0 L 0 129.796875 L 273.253906 144.800781 Z M 280.378906 15.003906 " clip-rule="nonzero"/></clipPath></defs><g clip-path="url(#c7e0c15641)"><g clip-path="url(#2425e09583)"><g clip-path="url(#91b115fb1b)"><g clip-path="url(#36bd86d9a2)"><path fill="#1672fd" d="M 115.640625 47.152344 C 105.324219 29.914062 87.621094 16.59375 67.113281 15.039062 C 37.871094 12.105469 7.535156 34.265625 4.652344 64.234375 C 2.550781 83.492188 11.777344 102.921875 26.648438 114.976562 C 41.496094 127.238281 61.96875 133.089844 80.910156 128.691406 C 101.949219 124.128906 119.957031 110.535156 135.222656 95.988281 C 145.703125 86.054688 154.566406 74.75 165.144531 64.988281 C 177.496094 53.636719 191.386719 42.546875 208.15625 39.378906 C 226.484375 36.195312 246.40625 47.007812 254.558594 63.710938 C 268.75 91.570312 242.742188 120.761719 214.253906 121.890625 C 195.5 123.226562 177.917969 113.0625 165.480469 99.542969 C 183.488281 131.308594 224.445312 142.125 254.257812 119.464844 C 266.308594 110.507812 274.753906 96.582031 276.113281 81.488281 C 277.578125 66.089844 271.785156 50.535156 261.765625 38.933594 C 245.984375 20.703125 219.761719 11.671875 196.3125 18.480469 C 173.125 24.863281 154.199219 41.089844 137.902344 57.964844 C 124.5625 72.460938 111.226562 87.636719 94.359375 98.058594 C 78.0625 108.433594 60.773438 111.40625 43.582031 101.214844 C 35.539062 96.628906 28.964844 89.464844 25.28125 80.953125 C 12.890625 53.148438 38.992188 25.25 66.886719 24.488281 C 85.699219 23.417969 103.148438 33.726562 115.640625 47.152344 " fill-opacity="1" fill-rule="nonzero"/></g></g></g></g><g fill="#1672fd" fill-opacity="1"><g transform="translate(6.406552, 206.426317)"><g><path d="M 35.65625 -40.03125 C 38.925781 -39.40625 42.082031 -38.71875 45.125 -37.96875 C 48.175781 -37.21875 50.894531 -36.15625 53.28125 -34.78125 C 55.664062 -33.414062 57.566406 -31.609375 58.984375 -29.359375 C 60.398438 -27.109375 61.109375 -24.171875 61.109375 -20.546875 C 61.109375 -16.835938 60.3125 -13.632812 58.71875 -10.9375 C 57.125 -8.238281 54.9375 -6.023438 52.15625 -4.296875 C 49.375 -2.578125 46.125 -1.296875 42.40625 -0.453125 C 38.695312 0.378906 34.679688 0.796875 30.359375 0.796875 C 28.585938 0.796875 26.617188 0.726562 24.453125 0.59375 C 22.285156 0.457031 20.050781 0.257812 17.75 0 C 15.457031 -0.257812 13.207031 -0.566406 11 -0.921875 C 8.789062 -1.273438 6.757812 -1.675781 4.90625 -2.125 L 4.90625 -17.09375 C 6.40625 -16.65625 8.238281 -16.28125 10.40625 -15.96875 C 12.570312 -15.664062 14.847656 -15.398438 17.234375 -15.171875 C 19.617188 -14.953125 22.023438 -14.773438 24.453125 -14.640625 C 26.878906 -14.515625 29.113281 -14.453125 31.15625 -14.453125 C 36.445312 -14.453125 40.21875 -14.867188 42.46875 -15.703125 C 44.726562 -16.546875 45.859375 -17.894531 45.859375 -19.75 C 45.859375 -20.363281 45.660156 -20.914062 45.265625 -21.40625 C 44.867188 -21.894531 44.070312 -22.378906 42.875 -22.859375 C 41.6875 -23.347656 39.988281 -23.832031 37.78125 -24.3125 C 35.570312 -24.800781 32.65625 -25.398438 29.03125 -26.109375 C 27.351562 -26.460938 25.1875 -26.90625 22.53125 -27.4375 C 19.882812 -27.96875 17.300781 -28.9375 14.78125 -30.34375 C 12.257812 -31.757812 10.070312 -33.703125 8.21875 -36.171875 C 6.363281 -38.648438 5.4375 -41.96875 5.4375 -46.125 C 5.4375 -49.65625 6.140625 -52.722656 7.546875 -55.328125 C 8.960938 -57.941406 10.929688 -60.109375 13.453125 -61.828125 C 15.972656 -63.554688 18.953125 -64.835938 22.390625 -65.671875 C 25.835938 -66.515625 29.597656 -66.9375 33.671875 -66.9375 C 35.253906 -66.9375 37.082031 -66.867188 39.15625 -66.734375 C 41.238281 -66.597656 43.335938 -66.398438 45.453125 -66.140625 C 47.578125 -65.878906 49.695312 -65.570312 51.8125 -65.21875 C 53.9375 -64.863281 55.882812 -64.460938 57.65625 -64.015625 L 57.65625 -49.046875 C 56.414062 -49.398438 54.78125 -49.726562 52.75 -50.03125 C 50.71875 -50.34375 48.570312 -50.628906 46.3125 -50.890625 C 44.0625 -51.160156 41.765625 -51.359375 39.421875 -51.484375 C 37.085938 -51.617188 34.992188 -51.6875 33.140625 -51.6875 C 28.453125 -51.6875 25.203125 -51.242188 23.390625 -50.359375 C 21.578125 -49.484375 20.671875 -48.25 20.671875 -46.65625 C 20.671875 -45.769531 20.914062 -45.039062 21.40625 -44.46875 C 21.894531 -43.894531 22.710938 -43.363281 23.859375 -42.875 C 25.003906 -42.394531 26.546875 -41.929688 28.484375 -41.484375 C 30.429688 -41.046875 32.820312 -40.5625 35.65625 -40.03125 Z M 35.65625 -40.03125 "/></g></g></g><g fill="#1672fd" fill-opacity="1"><g transform="translate(71.617585, 206.426317)"><g><path d="M 37.90625 -23.203125 C 34.988281 -23.203125 32.003906 -23.550781 28.953125 -24.25 C 25.910156 -24.957031 23.109375 -25.929688 20.546875 -27.171875 C 21.335938 -23.367188 23.257812 -20.316406 26.3125 -18.015625 C 29.363281 -15.722656 34.15625 -14.578125 40.6875 -14.578125 C 42.101562 -14.578125 43.738281 -14.644531 45.59375 -14.78125 C 47.445312 -14.914062 49.347656 -15.070312 51.296875 -15.25 C 53.242188 -15.425781 55.097656 -15.664062 56.859375 -15.96875 C 58.628906 -16.28125 60.132812 -16.65625 61.375 -17.09375 L 61.375 -2.125 C 59.78125 -1.675781 58.03125 -1.273438 56.125 -0.921875 C 54.226562 -0.566406 52.304688 -0.257812 50.359375 0 C 48.421875 0.257812 46.546875 0.457031 44.734375 0.59375 C 42.921875 0.726562 41.21875 0.796875 39.625 0.796875 C 33.707031 0.796875 28.515625 -0.0820312 24.046875 -1.84375 C 19.585938 -3.613281 15.878906 -6.023438 12.921875 -9.078125 C 9.960938 -12.128906 7.753906 -15.707031 6.296875 -19.8125 C 4.835938 -23.925781 4.109375 -28.28125 4.109375 -32.875 C 4.109375 -37.644531 4.859375 -42.082031 6.359375 -46.1875 C 7.859375 -50.300781 10.046875 -53.90625 12.921875 -57 C 15.796875 -60.09375 19.332031 -62.519531 23.53125 -64.28125 C 27.726562 -66.050781 32.519531 -66.9375 37.90625 -66.9375 C 41.96875 -66.9375 45.722656 -66.40625 49.171875 -65.34375 C 52.617188 -64.28125 55.601562 -62.773438 58.125 -60.828125 C 60.644531 -58.890625 62.585938 -56.59375 63.953125 -53.9375 C 65.328125 -51.289062 66.015625 -48.332031 66.015625 -45.0625 C 66.015625 -41.789062 65.328125 -38.804688 63.953125 -36.109375 C 62.585938 -33.421875 60.664062 -31.125 58.1875 -29.21875 C 55.71875 -27.320312 52.757812 -25.84375 49.3125 -24.78125 C 45.863281 -23.726562 42.0625 -23.203125 37.90625 -23.203125 Z M 38.046875 -38.578125 C 41.753906 -38.578125 44.664062 -39.128906 46.78125 -40.234375 C 48.90625 -41.335938 49.96875 -42.945312 49.96875 -45.0625 C 49.96875 -47.1875 48.925781 -48.800781 46.84375 -49.90625 C 44.769531 -51.007812 41.96875 -51.5625 38.4375 -51.5625 C 33.75 -51.5625 30.054688 -50.65625 27.359375 -48.84375 C 24.671875 -47.03125 22.707031 -44.625 21.46875 -41.625 C 23.851562 -40.644531 26.523438 -39.890625 29.484375 -39.359375 C 32.453125 -38.835938 35.304688 -38.578125 38.046875 -38.578125 Z M 38.046875 -38.578125 "/></g></g></g><g fill="#1672fd" fill-opacity="1"><g transform="translate(142.130313, 206.426317)"><g><path d="M 37.90625 -23.203125 C 34.988281 -23.203125 32.003906 -23.550781 28.953125 -24.25 C 25.910156 -24.957031 23.109375 -25.929688 20.546875 -27.171875 C 21.335938 -23.367188 23.257812 -20.316406 26.3125 -18.015625 C 29.363281 -15.722656 34.15625 -14.578125 40.6875 -14.578125 C 42.101562 -14.578125 43.738281 -14.644531 45.59375 -14.78125 C 47.445312 -14.914062 49.347656 -15.070312 51.296875 -15.25 C 53.242188 -15.425781 55.097656 -15.664062 56.859375 -15.96875 C 58.628906 -16.28125 60.132812 -16.65625 61.375 -17.09375 L 61.375 -2.125 C 59.78125 -1.675781 58.03125 -1.273438 56.125 -0.921875 C 54.226562 -0.566406 52.304688 -0.257812 50.359375 0 C 48.421875 0.257812 46.546875 0.457031 44.734375 0.59375 C 42.921875 0.726562 41.21875 0.796875 39.625 0.796875 C 33.707031 0.796875 28.515625 -0.0820312 24.046875 -1.84375 C 19.585938 -3.613281 15.878906 -6.023438 12.921875 -9.078125 C 9.960938 -12.128906 7.753906 -15.707031 6.296875 -19.8125 C 4.835938 -23.925781 4.109375 -28.28125 4.109375 -32.875 C 4.109375 -37.644531 4.859375 -42.082031 6.359375 -46.1875 C 7.859375 -50.300781 10.046875 -53.90625 12.921875 -57 C 15.796875 -60.09375 19.332031 -62.519531 23.53125 -64.28125 C 27.726562 -66.050781 32.519531 -66.9375 37.90625 -66.9375 C 41.96875 -66.9375 45.722656 -66.40625 49.171875 -65.34375 C 52.617188 -64.28125 55.601562 -62.773438 58.125 -60.828125 C 60.644531 -58.890625 62.585938 -56.59375 63.953125 -53.9375 C 65.328125 -51.289062 66.015625 -48.332031 66.015625 -45.0625 C 66.015625 -41.789062 65.328125 -38.804688 63.953125 -36.109375 C 62.585938 -33.421875 60.664062 -31.125 58.1875 -29.21875 C 55.71875 -27.320312 52.757812 -25.84375 49.3125 -24.78125 C 45.863281 -23.726562 42.0625 -23.203125 37.90625 -23.203125 Z M 38.046875 -38.578125 C 41.753906 -38.578125 44.664062 -39.128906 46.78125 -40.234375 C 48.90625 -41.335938 49.96875 -42.945312 49.96875 -45.0625 C 49.96875 -47.1875 48.925781 -48.800781 46.84375 -49.90625 C 44.769531 -51.007812 41.96875 -51.5625 38.4375 -51.5625 C 33.75 -51.5625 30.054688 -50.65625 27.359375 -48.84375 C 24.671875 -47.03125 22.707031 -44.625 21.46875 -41.625 C 23.851562 -40.644531 26.523438 -39.890625 29.484375 -39.359375 C 32.453125 -38.835938 35.304688 -38.578125 38.046875 -38.578125 Z M 38.046875 -38.578125 "/></g></g></g><g fill="#1672fd" fill-opacity="1"><g transform="translate(212.643041, 206.426317)"><g><path d="M 55.796875 -92.78125 L 71.703125 -92.78125 L 71.703125 -33.140625 C 71.703125 -28.453125 70.972656 -24.050781 69.515625 -19.9375 C 68.054688 -15.832031 65.890625 -12.253906 63.015625 -9.203125 C 60.148438 -6.160156 56.617188 -3.753906 52.421875 -1.984375 C 48.222656 -0.222656 43.429688 0.65625 38.046875 0.65625 C 32.472656 0.65625 27.566406 -0.269531 23.328125 -2.125 C 19.085938 -3.976562 15.53125 -6.453125 12.65625 -9.546875 C 9.78125 -12.640625 7.632812 -16.21875 6.21875 -20.28125 C 4.8125 -24.34375 4.109375 -28.582031 4.109375 -33 C 4.109375 -37.769531 4.898438 -42.207031 6.484375 -46.3125 C 8.078125 -50.425781 10.285156 -54.007812 13.109375 -57.0625 C 15.941406 -60.113281 19.347656 -62.519531 23.328125 -64.28125 C 27.304688 -66.050781 31.632812 -66.9375 36.3125 -66.9375 C 40.5625 -66.9375 44.296875 -66.179688 47.515625 -64.671875 C 50.742188 -63.171875 53.503906 -61.140625 55.796875 -58.578125 Z M 20.015625 -33.140625 C 20.015625 -30.484375 20.34375 -28.003906 21 -25.703125 C 21.664062 -23.410156 22.726562 -21.398438 24.1875 -19.671875 C 25.644531 -17.953125 27.519531 -16.609375 29.8125 -15.640625 C 32.113281 -14.671875 34.898438 -14.1875 38.171875 -14.1875 C 43.648438 -14.1875 47.957031 -15.707031 51.09375 -18.75 C 54.226562 -21.800781 55.796875 -26.597656 55.796875 -33.140625 C 55.796875 -39.671875 54.226562 -44.460938 51.09375 -47.515625 C 47.957031 -50.566406 43.648438 -52.09375 38.171875 -52.09375 C 34.898438 -52.09375 32.113281 -51.601562 29.8125 -50.625 C 27.519531 -49.65625 25.644531 -48.304688 24.1875 -46.578125 C 22.726562 -44.859375 21.664062 -42.847656 21 -40.546875 C 20.34375 -38.253906 20.015625 -35.785156 20.015625 -33.140625 Z M 20.015625 -33.140625 "/></g></g></g><g fill="#1672fd" fill-opacity="1"><g transform="translate(292.301223, 206.426317)"><g><path d="M 4.109375 -33.265625 C 4.109375 -37.859375 4.859375 -42.207031 6.359375 -46.3125 C 7.859375 -50.425781 10.066406 -54.007812 12.984375 -57.0625 C 15.898438 -60.113281 19.476562 -62.519531 23.71875 -64.28125 C 27.96875 -66.050781 32.785156 -66.9375 38.171875 -66.9375 C 43.210938 -66.9375 47.765625 -66.140625 51.828125 -64.546875 C 55.890625 -62.960938 59.351562 -60.710938 62.21875 -57.796875 C 65.09375 -54.878906 67.347656 -51.320312 68.984375 -47.125 C 70.617188 -42.925781 71.523438 -38.265625 71.703125 -33.140625 C 71.796875 -31.460938 71.84375 -29.40625 71.84375 -26.96875 C 71.84375 -24.539062 71.972656 -21.867188 72.234375 -18.953125 C 72.503906 -16.035156 72.988281 -12.960938 73.6875 -9.734375 C 74.394531 -6.515625 75.503906 -3.269531 77.015625 0 L 61.109375 0 C 59.597656 -3.269531 58.492188 -6.671875 57.796875 -10.203125 C 55.492188 -6.847656 52.570312 -4.195312 49.03125 -2.25 C 45.5 -0.3125 41.257812 0.65625 36.3125 0.65625 C 31.632812 0.65625 27.304688 -0.222656 23.328125 -1.984375 C 19.347656 -3.753906 15.941406 -6.160156 13.109375 -9.203125 C 10.285156 -12.253906 8.078125 -15.832031 6.484375 -19.9375 C 4.898438 -24.050781 4.109375 -28.492188 4.109375 -33.265625 Z M 38.171875 -52.09375 C 34.898438 -52.09375 32.113281 -51.601562 29.8125 -50.625 C 27.519531 -49.65625 25.644531 -48.304688 24.1875 -46.578125 C 22.726562 -44.859375 21.664062 -42.847656 21 -40.546875 C 20.34375 -38.253906 20.015625 -35.785156 20.015625 -33.140625 C 20.015625 -30.484375 20.34375 -28.003906 21 -25.703125 C 21.664062 -23.410156 22.726562 -21.398438 24.1875 -19.671875 C 25.644531 -17.953125 27.519531 -16.609375 29.8125 -15.640625 C 32.113281 -14.671875 34.898438 -14.1875 38.171875 -14.1875 C 43.648438 -14.1875 47.957031 -15.707031 51.09375 -18.75 C 54.226562 -21.800781 55.796875 -26.597656 55.796875 -33.140625 C 55.535156 -38.972656 54.035156 -43.585938 51.296875 -46.984375 C 48.554688 -50.390625 44.179688 -52.09375 38.171875 -52.09375 Z M 38.171875 -52.09375 "/></g></g></g></svg>